<svg xmlns="http://www.w3.org/2000/svg" width="72" height="53.333"><g data-name="Сгруппировать 112" fill="none"><g data-name="Объединение 2"><path d="M32.672 13.023a1 1 0 011-1h6.09a10.394 10.394 0 01.2-2.364 1 1 0 011.415 0l5.656 5.657a1 1 0 010 1.414l-5.656 5.657a1 1 0 01-1.415 0 10.23 10.23 0 01-.2-2.364h-6.088a1 1 0 01-1-1z"/><path d="M34.672 18.023h7.025l.038 1.18 3.179-3.18-3.177-3.178-.038 1.178h-7.027v4m-2 1v-6a1 1 0 011-1h6.09c.043-1.33.11-2.269.203-2.364a1 1 0 011.414 0l5.656 5.657a.997.997 0 010 1.414l-5.656 5.657a1 1 0 01-1.414 0c-.094-.096-.162-1.036-.205-2.364h-6.088a1 1 0 01-1-1z" fill="#252f5a"/></g><g data-name="Объединение 3"><path d="M38.328 23.023a1 1 0 00-1-1h-6.09a10.394 10.394 0 00-.2-2.364 1 1 0 00-1.415 0l-5.658 5.657a1 1 0 000 1.414l5.656 5.657a1 1 0 001.415 0 10.23 10.23 0 00.2-2.364h6.092a1 1 0 001-1z"/><path d="M36.328 24.023h-7.027l-.038-1.178-3.177 3.178 3.18 3.18.037-1.18h7.025v-4m2-1v6a1 1 0 01-1 1H31.24c-.043 1.328-.111 2.267-.205 2.364-.39.39-1.023.39-1.415 0l-5.655-5.657a.998.998 0 010-1.414l5.655-5.657a1.001 1.001 0 011.415 0c.092.095.16 1.034.203 2.364h6.09a1 1 0 011 1z" fill="#252f5a"/></g><g data-name="Сгруппировать 114"><g data-name="Контур 520" stroke-linecap="round" stroke-linejoin="round"><path d="M9.333 38.67h53.334A1.333 1.333 0 0164 40.003l8 12a1.333 1.333 0 01-1.333 1.333H1.333A1.333 1.333 0 010 52l8-12a1.333 1.333 0 011.333-1.33z"/><path d="M10.494 41.67l-5.777 8.663h62.566l-5.777-8.663H10.494m-1.16-3h53.333c.736 0 1.333.597 1.333 1.333L72 52c0 .736-.597 1.333-1.333 1.333H1.333A1.333 1.333 0 010 52l8-11.997c0-.736.597-1.333 1.333-1.333z" fill="#252f5a"/></g><g data-name="Прямоугольник 79" transform="translate(7.998)" stroke="#252f5a" stroke-width="3"><rect width="56.004" height="42.656" rx="1" stroke="none"/><rect x="1.5" y="1.5" width="53.004" height="39.656" rx=".5"/></g></g></g></svg>