<svg data-name="Asset 1" xmlns="http://www.w3.org/2000/svg" width="859.786" height="898.547"><g data-name="Layer 2"><path data-name="Контур 1" d="M753.603 812.883H53.559a7.085 7.085 0 01-7.065-7.063 7.085 7.085 0 017.065-7.063h700.044a7.085 7.085 0 017.065 7.063 7.085 7.085 0 01-7.065 7.063z" fill="#e2e2f7"/><path data-name="Контур 2" d="M584.837 175.746a31.42 31.42 0 01-3.894-.24c-17.957-2.2-32.4-19.047-34.73-21.9-2.71 2.567-19.56 17.779-36.567 16a29.514 29.514 0 01-21.687-14.85c-12.515-19.235 2.706-48.032 17.678-68.8a259.248 259.248 0 0160.088-59.473l.7-.459.026.838c.851 29.524 16.439 54.885 30.197 77.262 16.4 26.67 29.347 47.737 9.057 63.844a33.1 33.1 0 01-20.865 7.778zm-38.536-23.544l.327.424c.154.2 15.3 19.607 34.433 21.949a31.489 31.489 0 0024.055-7.341c19.641-15.59 6.883-36.344-9.27-62.618-13.685-22.266-29.182-47.473-30.3-76.888a259.775 259.775 0 00-59.141 58.777c-20.924 29.026-27.195 53.083-17.657 67.742a28.621 28.621 0 0021 14.428 25.7 25.7 0 002.7.139c17.077 0 33.311-16.064 33.48-16.234z" fill="#fff"/><path data-name="Контур 3" d="M569.929 254.943c-.205-.264-20.345-27.266-24.144-102.006-3.787-74.681 12.164-111.287 12.326-111.644l.858.385c-.161.357-16.021 36.789-12.244 111.214 3.781 74.4 23.747 101.22 23.949 101.482z" fill="#fff"/><path data-name="Контур 4" d="M591.686 140.837c-12.589-14.131-37.04-15.961-45.738-9.626l-.55-.759c9.156-6.687 33.869-4.969 46.993 9.762z" fill="#fff"/><path data-name="Контур 5" d="M545.779 112.726c-.172-.127-17.756-12.635-42.35-.906l-.4-.847c25.122-11.982 43.127.865 43.311 1z" fill="#fff"/><path data-name="Контур 6" d="M571.224 85.511a19.528 19.528 0 00-21.9-5.622l-.323-.884a20.492 20.492 0 0122.967 5.933z" fill="#fff"/><path data-name="Контур 7" d="M552.827 59.235c-.044-.035-4.151-3.469-12.684-.319l-.323-.88c9.083-3.357 13.443.334 13.627.493z" fill="#fff"/><path data-name="Контур 8" d="M500.205 131.981l-.455-.822a50.535 50.535 0 0146.143-3.011l-.447.825a49.585 49.585 0 00-45.236 3.009z" fill="#fff"/><path data-name="Контур 9" d="M581.596 110.359a35.452 35.452 0 00-34.921-4.928l-.4-.847a36.392 36.392 0 0135.9 5.031z" fill="#fff"/><path data-name="Контур 10" d="M547.782 87.7a26.21 26.21 0 00-27.07-2.767l-.359-.869a27.166 27.166 0 0128.059 2.943z" fill="#fff"/><path data-name="Контур 11" d="M565.904 63.836c-5.361-4.928-13.4-.53-13.476-.486l-.462-.817c.088-.048 8.706-4.78 14.577.611z" fill="#fff"/><path data-name="Контур 12" d="M555.792 48.43c-.066-.071-1.643-1.659-5.625-.471l-.271-.9c4.606-1.372 6.506.645 6.59.731l-.7.634.348-.317z" fill="#fff"/><path data-name="Контур 13" d="M128.963 708.541q-1.529 0-3.113-.114c-25.841-1.9-26.993-26.6-28.449-57.872-1.225-26.237-2.611-55.973-18.522-80.857l-.451-.7.836-.018a259.57 259.57 0 0183.142 15.346c24.066 8.742 52.856 23.982 53.333 46.923a29.5 29.5 0 01-9.567 24.477c-13.054 11.027-35.551 7.946-39.233 7.356-.319 3.667-2.779 25.72-16.384 37.645a31.726 31.726 0 01-21.591 7.818zM80.119 569.899c15.625 24.95 17 54.506 18.221 80.612 1.434 30.81 2.567 55.144 27.576 56.978a31.5 31.5 0 0024.019-7.469c14.5-12.714 16.091-37.271 16.105-37.517l.033-.535.525.1c.246.048 25.133 4.628 38.973-7.062a28.619 28.619 0 009.23-23.737c-.363-17.488-19.083-33.846-52.717-46.065a262.143 262.143 0 00-80.67-15.31 50.498 50.498 0 00-1.295.005z" fill="#33ff9d"/><path data-name="Контур 14" d="M204.369 760.198l-.939-.051c.018-.33 1.427-33.744-37.319-97.362-38.779-63.678-72.379-84.84-72.713-85.047l.492-.8c.337.209 34.129 21.489 73.021 85.353 38.924 63.921 37.476 97.577 37.458 97.907z" fill="#33ff9d"/><path data-name="Контур 15" d="M122.166 678.111l-.932-.125c2.527-19.333 21.555-34.521 32.948-34.521.136 0 .271 0 .4.007l-.03.939c-.121 0-.242-.007-.363-.007-10.814 0-29.6 15.148-32.023 33.707z" fill="#33ff9d"/><path data-name="Контур 16" d="M144.315 629.034l-.887-.315c.077-.209 7.734-20.964 35.243-25.2l.139.931c-26.93 4.142-34.426 24.377-34.495 24.584z" fill="#33ff9d"/><path data-name="Контур 17" d="M107.937 620.85l-.939-.051a20.475 20.475 0 0115.647-17.829l.227.909a19.5 19.5 0 00-14.936 16.971z" fill="#33ff9d"/><path data-name="Контур 18" d="M108.355 588.772l-.909-.235c.059-.235 1.58-5.735 10.99-8.075l.228.909c-8.827 2.197-10.294 7.349-10.309 7.401z" fill="#33ff9d"/><path data-name="Контур 19" d="M153.741 642.277l-.836-.433a50.5 50.5 0 0139.835-23.472l.088.931a49.536 49.536 0 00-39.087 22.974z" fill="#33ff9d"/><path data-name="Контур 20" d="M113.353 647.233l-.895-.293a36.4 36.4 0 0126.839-24.36l.146.924a35.452 35.452 0 00-26.09 23.729z" fill="#33ff9d"/><path data-name="Контур 21" d="M128.542 609.469l-.909-.22a27.153 27.153 0 0121.529-18.217l.2.917a26.181 26.181 0 00-20.82 17.52z" fill="#33ff9d"/><path data-name="Контур 22" d="M100.138 599.936l-.917-.212c1.819-7.759 11.606-8.7 11.705-8.713l.081.939c-.092.004-9.21.895-10.869 7.986z" fill="#33ff9d"/><path data-name="Контур 23" d="M99.826 581.506l-.932-.136c.018-.118.462-2.86 5.031-4.313l.286.895c-3.967 1.259-4.37 3.464-4.385 3.554z" fill="#33ff9d"/><path data-name="Контур 24" d="M445.784 160.6s-21.505 65.626-72.783 47.956C309.712 186.743 387.67 88.7 359.219 0c56.674 13.779 179.15 78.543 165.42 135.194S445.784 160.6 445.784 160.6z" fill="#252f5a"/><path data-name="Контур 25" d="M462.212 309.403l-.895-.293c.147-.449 14.338-46.164-15.988-148.38-30.33-102.231-69.082-143.841-69.471-144.25l.682-.645c.389.409 39.288 42.152 69.691 144.628 30.422 102.549 16.128 148.488 15.981 148.94z" fill="#fff"/><path data-name="Контур 26" d="M378.58 165.85l-.866-.356c10.649-26.025 43-40.047 58.489-35.4l-.272.9c-14.782-4.431-47.058 9.719-57.351 34.856z" fill="#fff"/><path data-name="Контур 27" d="M427.139 106.059l-.777-.528c.176-.262 18.265-26.05 57.748-21.86l-.1.935c-38.881-4.145-56.695 21.198-56.871 21.453z" fill="#fff"/><path data-name="Контур 28" d="M379.841 81.512l-.895-.29a29.066 29.066 0 0127.572-18.792h.382l-.007.939h-.37a28.086 28.086 0 00-26.681 18.143z" fill="#fff"/><path data-name="Контур 29" d="M392.168 37.285l-.821-.46c.169-.3 4.184-7.252 17.968-7.044l-.015.939c-13.134-.199-17.095 6.497-17.132 6.565z" fill="#fff"/><path data-name="Контур 30" d="M435.344 127.789l-.7-.631c.228-.246 22.937-24.673 63.472-17.822l-.154.924c-40.014-6.743-62.394 17.287-62.618 17.529z" fill="#fff"/><path data-name="Контур 31" d="M377.701 119.909l-.785-.513a51.883 51.883 0 0145.827-23.773l-.1.935a50.9 50.9 0 00-44.942 23.351z" fill="#fff"/><path data-name="Контур 32" d="M412.516 73.28l-.829-.444a38.242 38.242 0 0133.656-17.275c.851 0 1.709.02 2.592.064l-.044.939c-25.423-1.289-35.28 16.536-35.375 16.716z" fill="#fff"/><path data-name="Контур 33" d="M376.716 49.714l-.829-.44c5.28-9.941 19-7.68 19.149-7.655l-.161.924c-.125-.019-13.198-2.158-18.159 7.171z" fill="#fff"/><path data-name="Контур 34" d="M383.013 24.142l-.862-.37c.062-.15 1.636-3.671 8.361-4l.044.939c-6.091.296-7.485 3.303-7.543 3.431z" fill="#fff"/><path data-name="Контур 35" d="M104.229 682.552s9.331 37.438-20.18 44.318c-36.423 8.493-28.684-61.063-68.503-94.563 30.907-10.325 108.1-16.086 118.437 14.794s-29.754 35.451-29.754 35.451z" fill="#252f5a"/><path data-name="Контур 36" d="M155.52 748.248c-.066-.257-6.941-26.054-51.6-65.339-44.71-39.331-75.347-47.476-75.652-47.549l.231-.909c.306.077 31.164 8.276 76.042 47.755 44.917 39.515 51.826 65.559 51.888 65.815z" fill="#fff"/><path data-name="Контур 37" d="M73.28 705.132c-2.713-15.577 8.526-31.939 17.3-34.367l.249.9c-8.251 2.285-19.208 18.452-16.623 33.3z" fill="#fff"/><path data-name="Контур 38" d="M79.404 662.293l-.939-.037c.007-.176.909-17.884 20.938-27.682l.411.843c-19.504 9.542-20.403 26.702-20.41 26.876z" fill="#fff"/><path data-name="Контур 39" d="M48.823 664.901a16.451 16.451 0 017.732-17.422l.492.8a15.259 15.259 0 00-7.314 16.4z" fill="#fff"/><path data-name="Контур 40" d="M41.488 640.169c-.009-.194-.165-4.8 6.505-8.859l.488.8c-6.155 3.744-6.056 7.976-6.054 8.016z" fill="#fff"/><path data-name="Контур 41" d="M89.737 670.17l-.924-.165a40.465 40.465 0 0124.859-27.455l.359.865a39.516 39.516 0 00-24.294 26.755z" fill="#fff"/><path data-name="Контур 42" d="M60.135 683.532l-.939-.015a29.2 29.2 0 0114.729-25.053l.418.843a28.232 28.232 0 00-14.208 24.225z" fill="#fff"/><path data-name="Контур 43" d="M61.812 651.171a21.789 21.789 0 0112.139-19.115l.462.822a20.814 20.814 0 00-11.662 18.224z" fill="#fff"/><path data-name="Контур 44" d="M37.873 650.659c-.466-6.417 6.839-9.487 6.912-9.516l.356.866c-.068.029-6.747 2.849-6.333 8.584z" fill="#fff"/><path data-name="Контур 45" d="M33.263 636.747c-.015-.092-.339-2.351 2.851-4.576l.535.77c-2.669 1.863-2.468 3.59-2.458 3.663z" fill="#fff"/><path data-name="Контур 46" d="M736.538 686.209s-11.892 53.052 29.911 61.758c51.594 10.745 38.365-86.976 93.337-135.51-43.885-13.511-152.816-19.045-166.351 24.8s43.103 48.952 43.103 48.952z" fill="#33ff9d"/><path data-name="Контур 47" d="M666.296 780.465l-.917-.205c.084-.367 8.929-37.227 70.839-94.355 61.866-57.084 105.015-69.651 105.445-69.772l.256.9c-.429.121-43.388 12.648-105.063 69.559-61.697 56.932-70.479 93.512-70.56 93.873z" fill="#252f5a"/><path data-name="Контур 48" d="M780.702 716.953l-.932-.139c3.161-21.1-12.9-43.615-24.668-46.571l.228-.909c12.369 3.106 28.658 25.676 25.372 47.619z" fill="#252f5a"/><path data-name="Контур 49" d="M771.025 656.824c-.015-.242-1.859-24.5-29.765-37.341l.389-.851c28.437 13.076 30.3 37.884 30.315 38.133z" fill="#252f5a"/><path data-name="Контур 50" d="M813.814 659.446l-.917-.205a22.047 22.047 0 00-10.942-23.058l.469-.814a22.993 22.993 0 0111.39 24.077z" fill="#252f5a"/><path data-name="Контур 51" d="M823.313 624.397l-.939-.022c0-.062.015-6.128-8.892-11.254l.469-.814c9.428 5.427 9.369 11.822 9.362 12.09z" fill="#252f5a"/><path data-name="Контур 52" d="M756.723 668.234c-.055-.253-5.5-25.475-35.232-37.011l.338-.873c30.231 11.727 35.76 37.44 35.812 37.7z" fill="#252f5a"/><path data-name="Контур 53" d="M798.872 686.108a39.972 39.972 0 00-20.935-33.813l.4-.851a40.924 40.924 0 0121.478 34.627z" fill="#252f5a"/><path data-name="Контур 54" d="M795.054 640.567l-.939-.044a29.583 29.583 0 00-17.14-25.46l.44-.829a30.511 30.511 0 0117.639 26.333z" fill="#252f5a"/><path data-name="Контур 55" d="M828.754 639.05l-.939-.044c.4-8.236-9.234-12.031-9.333-12.068l.338-.88c.103.041 10.367 4.074 9.934 12.992z" fill="#252f5a"/><path data-name="Контур 56" d="M834.79 619.281l-.932-.125.466.062-.466-.059c.011-.106.264-2.651-3.674-5.262l.521-.785c4.466 2.959 4.103 6.04 4.085 6.169z" fill="#252f5a"/><path data-name="Контур 57" d="M752.188 639.898a36.868 36.868 0 01-17.051-4.082c-22.556-11.565-30.979-44.481-32.038-48.994-4.345 1.408-36.113 11-60.227-.814a47.353 47.353 0 01-24.257-28.936c-11.965-35.834 20.719-51.3 62.093-70.887 34.818-16.48 74.282-35.159 98.987-70.777l.477-.688.337.766c11.038 25.016 23.938 73.562 26.171 121.031 1.76 37.418-2.574 84.865-33.219 98.415a52.746 52.746 0 01-21.272 4.965zm-48.4-54.3l.11.525c.077.363 7.95 36.7 31.668 48.866 10.891 5.585 23.513 5.273 37.509-.909 23.531-10.4 35.13-45.034 32.662-97.513-2.2-46.87-14.826-94.775-25.757-119.931-24.873 35.377-64.173 53.978-98.873 70.4-40.957 19.386-73.307 34.7-61.609 69.737a46.472 46.472 0 0023.78 28.393c25.467 12.482 59.666.726 60.007.6z" fill="#252f5a"/><path data-name="Контур 58" d="M592.659 692.359l-.308-.887c.455-.161 46.487-17.125 110.71-105.522 64.239-88.415 73.912-145.878 74-146.448l.924.146c-.088.572-9.78 58.234-74.165 146.852-64.429 88.679-110.699 105.694-111.161 105.859z" fill="#252f5a"/><path data-name="Контур 59" d="M721.358 559.736c-5.622-14.807-37.26-32.225-64.121-24.91l-.249-.909c27.818-7.543 59.372 10.015 65.25 25.489z" fill="#252f5a"/><path data-name="Контур 60" d="M789.084 569.909c-20.887-34.22-52.574-32.919-52.922-32.882l-.051-.939c.337 0 32.6-1.353 53.773 33.329z" fill="#252f5a"/><path data-name="Контур 61" d="M758.278 493.944a28.813 28.813 0 00-31.631-10.695l-.316-.884a29.772 29.772 0 0132.695 11.014z" fill="#252f5a"/><path data-name="Контур 62" d="M786.335 475.54c-8.038-10.817-15.963-9.847-16.032-9.847l-.132-.928c.349-.048 8.507-1.1 16.92 10.214z" fill="#252f5a"/><path data-name="Контур 63" d="M776.918 597.26c-19.468-36.765-52.973-39.981-53.311-40.007l.081-.939c.341.029 34.345 3.271 54.059 40.506z" fill="#252f5a"/><path data-name="Контур 64" d="M741.113 527.459a52.318 52.318 0 00-47.025-22l-.073-.935a53.09 53.09 0 0147.9 22.44z" fill="#252f5a"/><path data-name="Контур 65" d="M789.374 523.043c-14.822-21.456-35.456-18.379-35.665-18.35l-.15-.928c.22-.035 21.434-3.188 36.585 18.742z" fill="#252f5a"/><path data-name="Контур 66" d="M767.728 471.186c-.062-.123-6.505-12.116-17.169-10.306l-.154-.928c11.324-1.89 18.089 10.671 18.152 10.8z" fill="#252f5a"/><path data-name="Контур 67" d="M782.789 454.054c-4.049-4.78-7.459-4-7.5-4l-.231-.909c.161-.042 3.993-.964 8.453 4.3z" fill="#252f5a"/><path data-name="Контур 68" d="M82.847 791.263c14.525 0 14.525-115.822 0-115.822h433.464c14.525 0 14.525 115.822 0 115.822z" fill="#f5f5f7"/><path data-name="Контур 69" d="M524.766 695.267H90.539a1.877 1.877 0 110-3.755h434.227a1.877 1.877 0 110 3.755z" fill="#ebebed"/><path data-name="Контур 70" d="M524.766 718.081H90.539a1.878 1.878 0 010-3.755h434.227a1.878 1.878 0 010 3.755z" fill="#ebebed"/><path data-name="Контур 71" d="M524.766 752.334H90.539a1.877 1.877 0 110-3.755h434.227a1.877 1.877 0 110 3.755z" fill="#ebebed"/><path data-name="Контур 72" d="M524.766 775.143H90.539a1.878 1.878 0 010-3.755h434.227a1.878 1.878 0 010 3.755z" fill="#ebebed"/><path data-name="Контур 73" d="M524.766 706.674H90.539a1.878 1.878 0 010-3.755h434.227a1.878 1.878 0 010 3.755z" fill="#ebebed"/><path data-name="Контур 74" d="M524.766 729.526H90.539a1.878 1.878 0 010-3.755h434.227a1.878 1.878 0 010 3.755z" fill="#ebebed"/><path data-name="Контур 75" d="M524.766 740.93H90.539a1.878 1.878 0 010-3.755h434.227a1.878 1.878 0 010 3.755z" fill="#ebebed"/><path data-name="Контур 76" d="M524.766 763.739H90.539a1.878 1.878 0 010-3.755h434.227a1.878 1.878 0 010 3.755z" fill="#ebebed"/><path data-name="Контур 77" d="M516.506 791.263c14.525 0 14.525-115.822 0-115.822h211.63c14.525 0 14.525 115.822 0 115.822z" fill="#3021bf"/><path data-name="Контур 78" d="M728.119 667.933H516.487a7.507 7.507 0 00-2.44 14.607c7.848 12.429 7.848 89.181 0 101.61a7.507 7.507 0 002.44 14.607h211.632c4.581 0 18.437 0 18.437-65.412s-13.856-65.412-18.437-65.412zm-2.178 115.8H530.006c2.816-9.5 4.919-25.008 4.919-50.392 0-25.346-2.1-40.892-4.919-50.392h195.935c7.51 13.484 7.51 87.345 0 100.788z" fill="#3021bf"/><path data-name="Контур 79" d="M686.586 783.737a81.067 81.067 0 01-3.792 15.02h-55.725a81.12 81.12 0 003.793-15.02 371.282 371.282 0 000-100.784 81.1 81.1 0 00-3.793-15.02h55.724a81.054 81.054 0 013.793 15.02 368.237 368.237 0 010 100.784z" fill="#3932d6"/><path data-name="Контур 80" d="M516.311 798.774H82.847a7.51 7.51 0 110-15.02h431.256c7.528-13.469 7.528-87.333 0-100.8H82.847a7.51 7.51 0 110-15.02h433.464c4.551 0 18.4 0 18.4 65.423s-13.849 65.417-18.4 65.417zm0-115.822z" fill="#462be2"/><g data-name="Сгруппировать 2" fill="#ebebed"><path data-name="Контур 81" d="M463.324 706.093v50.7a2.787 2.787 0 003.678 2.641l12.106-4.082 12.106 4.082a2.787 2.787 0 003.677-2.641v-50.7a2.445 2.445 0 00-2.445-2.445h-26.681a2.445 2.445 0 00-2.445 2.445z"/><path data-name="Контур 82" d="M466.112 761.458a4.665 4.665 0 01-4.664-4.664v-50.7a4.326 4.326 0 014.32-4.324h26.677a4.329 4.329 0 014.323 4.324v50.7a4.663 4.663 0 01-6.153 4.419l-11.507-3.88-11.507 3.88a4.614 4.614 0 01-1.489.245zm13-7.983a1.874 1.874 0 01.6.1l12.1 4.081a.859.859 0 00.821-.125.886.886 0 00.378-.737v-50.7a.571.571 0 00-.568-.569h-26.675a.568.568 0 00-.565.568v50.7a.886.886 0 00.378.737.862.862 0 00.817.125l12.108-4.081a1.9 1.9 0 01.6-.1z"/></g><path data-name="Контур 83" d="M461.528 704.732v50.7a2.787 2.787 0 003.677 2.64l12.106-4.082 12.106 4.082a2.787 2.787 0 003.677-2.64v-50.7a2.445 2.445 0 00-2.447-2.445h-26.674a2.445 2.445 0 00-2.445 2.445z" fill="#33ff9d"/><path data-name="Контур 84" d="M490.306 760.097a4.612 4.612 0 01-1.489-.246l-11.507-3.88-11.5 3.88a4.664 4.664 0 01-6.157-4.419v-50.7a4.329 4.329 0 014.323-4.324h26.677a4.326 4.326 0 014.32 4.324v50.7a4.666 4.666 0 01-4.664 4.664zm-26.337-55.932a.571.571 0 00-.568.568v50.7a.911.911 0 001.2.862l12.1-4.081a1.873 1.873 0 011.2 0l12.108 4.081a.909.909 0 001.2-.862v-50.7a.568.568 0 00-.565-.568z" fill="#33ff9d"/><path data-name="Контур 85" d="M749.3 660.359c-14.525 0-14.525-115.822 0-115.822H479.59c-14.525 0-14.525 115.822 0 115.822z" fill="#ebebed"/><path data-name="Контур 86" d="M471.134 564.395h270.474a1.878 1.878 0 000-3.755H471.134a1.878 1.878 0 100 3.755z" fill="#f5f5f7"/><path data-name="Контур 87" d="M471.134 587.209h270.474a1.878 1.878 0 000-3.755H471.134a1.878 1.878 0 000 3.755z" fill="#f5f5f7"/><path data-name="Контур 88" d="M471.134 621.43h270.474a1.878 1.878 0 000-3.755H471.134a1.878 1.878 0 000 3.755z" fill="#f5f5f7"/><path data-name="Контур 89" d="M471.134 644.244h270.474a1.878 1.878 0 000-3.755H471.134a1.878 1.878 0 100 3.755z" fill="#f5f5f7"/><path data-name="Контур 90" d="M471.134 575.802h270.474a1.878 1.878 0 000-3.755H471.134a1.878 1.878 0 100 3.755z" fill="#f5f5f7"/><path data-name="Контур 91" d="M471.134 598.616h270.474a1.877 1.877 0 000-3.755H471.134a1.877 1.877 0 100 3.755z" fill="#f5f5f7"/><path data-name="Контур 92" d="M471.134 610.022h270.474a1.878 1.878 0 000-3.755H471.134a1.878 1.878 0 000 3.755z" fill="#f5f5f7"/><path data-name="Контур 93" d="M471.134 632.837h270.474a1.878 1.878 0 000-3.755H471.134a1.878 1.878 0 000 3.755z" fill="#f5f5f7"/><path data-name="Контур 94" d="M479.456 660.359c-14.525 0-14.525-115.822 0-115.822H180.949c-14.525 0-14.525 115.822 0 115.822z" fill="#ff8a33"/><path data-name="Контур 95" d="M180.96 537.029h298.513a7.507 7.507 0 012.44 14.607c-7.848 12.429-7.848 89.181 0 101.61a7.507 7.507 0 01-2.44 14.607H180.96c-4.581 0-18.437 0-18.437-65.412s13.86-65.412 18.437-65.412zm2.178 115.8h282.816c-2.816-9.5-4.919-25.008-4.919-50.392 0-25.346 2.1-40.892 4.919-50.392H183.142c-7.51 13.48-7.51 87.341 0 100.784z" fill="#ff8a33"/><path data-name="Контур 96" d="M222.449 652.834a81.082 81.082 0 003.793 15.02h28.828a81.079 81.079 0 01-3.793-15.02 371.259 371.259 0 01.004-100.784 81.08 81.08 0 013.793-15.02h-28.832a81.082 81.082 0 00-3.793 15.02 368.273 368.273 0 000 100.784z" fill="#ffa76c"/><path data-name="Контур 97" d="M392.265 652.833a81.052 81.052 0 003.793 15.02h28.825a81.107 81.107 0 01-3.793-15.02 371.262 371.262 0 010-100.784 81.106 81.106 0 013.793-15.02h-28.825a81.049 81.049 0 00-3.793 15.021 368.244 368.244 0 000 100.783z" fill="#ffa76c"/><path data-name="Контур 98" d="M263.003 652.833a81.076 81.076 0 003.793 15.02h18.041a81.077 81.077 0 01-3.793-15.02 371.261 371.261 0 010-100.784 81.077 81.077 0 013.793-15.02h-18.041a81.082 81.082 0 00-3.793 15.021 368.272 368.272 0 000 100.783z" fill="#ffa76c"/><path data-name="Контур 99" d="M288.305 652.833a81.081 81.081 0 003.8 15.017h18.042a81.11 81.11 0 01-3.793-15.02 371.258 371.258 0 010-100.784 81.11 81.11 0 013.793-15.02h-18.042a81.076 81.076 0 00-3.8 15.024 368.269 368.269 0 000 100.784z" fill="#ffa76c"/><path data-name="Контур 100" d="M479.59 667.871h269.711a7.51 7.51 0 000-15.02H481.798c-7.528-13.469-7.528-87.333 0-100.8h267.5a7.51 7.51 0 000-15.02H479.59c-4.551 0-18.4 0-18.4 65.423s13.849 65.417 18.4 65.417zm0-115.822z" fill="#d86212"/><g data-name="Сгруппировать 3" fill="#ebebed"><path data-name="Контур 101" d="M532.609 575.221v50.7a2.787 2.787 0 01-3.677 2.641l-12.106-4.086-12.106 4.082a2.787 2.787 0 01-3.677-2.641v-50.7a2.445 2.445 0 012.445-2.445h26.677a2.445 2.445 0 012.444 2.449z"/><path data-name="Контур 102" d="M529.821 630.585a4.666 4.666 0 004.665-4.664v-50.7a4.325 4.325 0 00-4.323-4.323h-26.675a4.328 4.328 0 00-4.323 4.323v50.7a4.663 4.663 0 006.153 4.419l11.507-3.88 11.507 3.88a4.61 4.61 0 001.489.246zm-13-7.983a1.88 1.88 0 00-.6.1l-12.1 4.081a.86.86 0 01-.821-.125.885.885 0 01-.378-.737v-50.7a.571.571 0 01.568-.568h26.673a.568.568 0 01.565.568v50.7a.886.886 0 01-.378.737.864.864 0 01-.817.125l-12.106-4.085a1.893 1.893 0 00-.6-.1z"/></g><path data-name="Контур 103" d="M534.405 573.858v50.7a2.787 2.787 0 01-3.677 2.641l-12.106-4.082-12.106 4.082a2.787 2.787 0 01-3.677-2.641v-50.7a2.445 2.445 0 012.445-2.445h26.674a2.445 2.445 0 012.445 2.445z" fill="#3021bf"/><path data-name="Контур 104" d="M505.626 629.224a4.614 4.614 0 001.489-.246l11.507-3.88 11.5 3.88a4.664 4.664 0 006.157-4.419v-50.7a4.329 4.329 0 00-4.323-4.323h-26.675a4.326 4.326 0 00-4.32 4.323v50.7a4.666 4.666 0 004.665 4.665zm26.333-55.933a.571.571 0 01.568.568v50.7a.911.911 0 01-1.2.862l-12.1-4.081a1.873 1.873 0 00-1.2 0l-12.109 4.081a.908.908 0 01-1.2-.862v-50.7a.568.568 0 01.565-.568z" fill="#3021bf"/><path data-name="Контур 105" d="M215.55 460.842h495.7c26.761 0 26.761 70.615 0 70.615h-495.7" fill="#23d87d"/><path data-name="Контур 106" d="M711.25 537.399h-495.7a5.945 5.945 0 010-11.889h495.7c9.175 0 14.124-15.128 14.124-29.363s-4.949-29.365-14.124-29.365h-495.7a5.945 5.945 0 010-11.889h495.7c17.874 0 26.013 21.383 26.013 41.252s-8.139 41.254-26.013 41.254z" fill="#23d87d"/><path data-name="Контур 107" d="M67.912 531.454c26.761 0 26.761-70.615 0-70.615H411.02c26.761 0 26.761 70.615 0 70.615z" fill="#f5f5f7"/><path data-name="Контур 108" d="M417.713 484.089H85.139a1.486 1.486 0 110-2.972h332.574a1.486 1.486 0 010 2.972z" fill="#ebebed"/><path data-name="Контур 109" d="M417.713 511.176H85.139a1.486 1.486 0 010-2.972h332.574a1.486 1.486 0 010 2.972z" fill="#ebebed"/><path data-name="Контур 110" d="M417.713 475.059H83.031a1.486 1.486 0 010-2.972h334.682a1.486 1.486 0 110 2.972z" fill="#ebebed"/><path data-name="Контур 111" d="M417.713 493.118H87.246a1.486 1.486 0 010-2.972h330.467a1.486 1.486 0 110 2.972z" fill="#ebebed"/><path data-name="Контур 112" d="M417.713 502.147H87.246a1.486 1.486 0 110-2.972h330.467a1.486 1.486 0 110 2.972z" fill="#ebebed"/><path data-name="Контур 113" d="M417.713 520.205H83.031a1.486 1.486 0 010-2.972h334.682a1.486 1.486 0 010 2.972z" fill="#ebebed"/><path data-name="Контур 114" d="M411.02 537.399H67.912a5.945 5.945 0 110-11.889H411.02c9.175 0 14.124-15.128 14.124-29.363s-4.949-29.365-14.124-29.365H67.912a5.945 5.945 0 010-11.889H411.02c17.874 0 26.013 21.383 26.013 41.252s-8.138 41.254-26.013 41.254z" fill="#33ff9d"/><g data-name="Сгруппировать 4" fill="#ebebed"><path data-name="Контур 115" d="M372.045 476.79v24.269a2.206 2.206 0 002.911 2.09l9.582-3.231 9.582 3.231a2.206 2.206 0 002.911-2.09V476.79a1.935 1.935 0 00-1.936-1.935H373.98a1.935 1.935 0 00-1.935 1.936z"/><path data-name="Контур 116" d="M374.253 504.751a3.694 3.694 0 01-3.695-3.692V476.79a3.426 3.426 0 013.422-3.422h21.117a3.426 3.426 0 013.422 3.422v24.269a3.693 3.693 0 01-4.874 3.5l-9.108-3.069-9.106 3.069a3.655 3.655 0 01-1.178.195zm-.273-28.411a.451.451 0 00-.45.45v24.269a.721.721 0 00.949.682l9.582-3.23a1.486 1.486 0 01.952 0l9.585 3.231a.721.721 0 00.949-.682v-24.27a.451.451 0 00-.45-.45z"/></g><path data-name="Контур 117" d="M370.623 475.712v24.269a2.206 2.206 0 002.911 2.09l9.582-3.231 9.582 3.231a2.206 2.206 0 002.911-2.09v-24.269a1.935 1.935 0 00-1.935-1.935h-21.115a1.935 1.935 0 00-1.936 1.935z" fill="#ff8a33"/><path data-name="Контур 118" d="M372.833 503.673a3.69 3.69 0 01-3.695-3.692v-24.269a3.423 3.423 0 013.419-3.421h21.116a3.425 3.425 0 013.422 3.421v24.269a3.691 3.691 0 01-4.871 3.5l-9.108-3.071-9.108 3.071a3.683 3.683 0 01-1.176.193zm10.284-6.319a1.487 1.487 0 01.476.079l9.582 3.232a.72.72 0 00.949-.684v-24.269a.451.451 0 00-.45-.448h-21.119a.449.449 0 00-.447.448v24.269a.718.718 0 00.946.684l9.585-3.232a1.486 1.486 0 01.476-.078z" fill="#ff8a33"/><path data-name="Контур 119" d="M701.801 505.352H470.42a9.234 9.234 0 01-9.207-9.206 9.234 9.234 0 019.206-9.206h231.382a9.234 9.234 0 019.207 9.206 9.233 9.233 0 01-9.207 9.206z" fill="#33ff9d"/><path data-name="Контур 120" d="M171.356 447.324h134.443c18.442-10.009 32.183-32.663 32.231-62.2l63.744-226.419h383.751l-63.742 226.423c-.049 29.533-13.789 52.187-32.231 62.2h-218.37" fill="#462be2"/><path data-name="Контур 121" d="M689.553 454.833H471.184a7.51 7.51 0 110-15.02h216.38c16.483-9.863 26.667-30.619 26.707-54.7a7.4 7.4 0 01.282-2.022l61.057-216.876H407.464l-61.93 219.974c-.363 29.91-14.154 55.8-36.153 67.735a7.506 7.506 0 01-3.583.909H171.356a7.51 7.51 0 110-15.02h132.456c16.483-9.863 26.67-30.618 26.71-54.7a7.4 7.4 0 01.282-2.022l63.743-226.421a7.508 7.508 0 017.228-5.475h383.75a7.507 7.507 0 017.228 9.545l-63.468 225.45c-.363 29.906-14.155 55.8-36.149 67.733a7.524 7.524 0 01-3.583.91z" fill="#462be2"/><path data-name="Контур 122" d="M336.993 416.724c-10.151-11.224 59.419-253.36 79.721-253.36h363.6l-69.719 252.408z" fill="#f5f5f7"/><path data-name="Контур 123" d="M366.909 375.152a2.085 2.085 0 01-.261-.017 1.875 1.875 0 01-1.6-2.116c7.987-58.252 27.253-121.44 58.907-193.173a1.876 1.876 0 013.432 1.514c-31.507 71.409-50.681 134.269-58.62 192.169a1.875 1.875 0 01-1.855 1.623z" fill="#ebebed"/><path data-name="Контур 124" d="M378.524 375.153a2.024 2.024 0 01-.256-.017 1.879 1.879 0 01-1.606-2.114c7.972-58.56 27.238-121.749 58.902-193.179a1.878 1.878 0 113.433 1.522c-31.521 71.1-50.7 133.959-58.621 192.163a1.875 1.875 0 01-1.856 1.624z" fill="#ebebed"/><path data-name="Контур 125" d="M390.141 375.153a2.07 2.07 0 01-.256-.016 1.877 1.877 0 01-1.606-2.112c7.95-58.843 27.219-122.035 58.909-193.183a1.879 1.879 0 113.432 1.529C419.077 252.19 399.902 315.046 392 373.529a1.874 1.874 0 01-1.856 1.626z" fill="#ebebed"/><path data-name="Контур 126" d="M401.757 375.153a1.971 1.971 0 01-.253-.017 1.876 1.876 0 01-1.61-2.11c7.814-58.3 27.638-123.3 58.91-193.188a1.876 1.876 0 013.425 1.533c-31.126 69.559-50.846 134.21-58.617 192.154a1.875 1.875 0 01-1.855 1.628z" fill="#ebebed"/><path data-name="Контур 127" d="M413.374 375.153a1.967 1.967 0 01-.253-.017 1.88 1.88 0 01-1.614-2.108c7.8-58.6 27.623-123.6 58.914-193.194a1.878 1.878 0 013.425 1.54c-31.14 69.269-50.861 133.913-58.613 192.149a1.882 1.882 0 01-1.859 1.63z" fill="#ebebed"/><path data-name="Контур 128" d="M424.989 375.153a1.917 1.917 0 01-.249-.017 1.878 1.878 0 01-1.617-2.107c7.778-58.866 27.6-123.867 58.914-193.2a1.88 1.88 0 013.425 1.547c-31.166 69-50.883 133.642-58.613 192.143a1.879 1.879 0 01-1.86 1.634z" fill="#ebebed"/><path data-name="Контур 129" d="M436.602 375.153a1.914 1.914 0 01-.249-.017 1.878 1.878 0 01-1.617-2.1c7.759-59.149 27.583-124.152 58.921-193.2a1.877 1.877 0 113.417 1.551c-31.184 68.707-50.905 133.357-58.613 192.132a1.878 1.878 0 01-1.859 1.634z" fill="#ebebed"/><path data-name="Контур 130" d="M448.218 375.153a1.885 1.885 0 01-1.867-2.12c7.741-59.424 27.565-124.426 58.921-193.208a1.878 1.878 0 113.418 1.559c-31.2 68.439-50.923 133.082-58.613 192.134a1.88 1.88 0 01-1.859 1.635z" fill="#ebebed"/><path data-name="Контур 131" d="M459.834 375.152a2.307 2.307 0 01-.246-.015 1.88 1.88 0 01-1.621-2.1c7.715-59.684 27.539-124.69 58.925-193.212a1.876 1.876 0 113.41 1.562c-31.224 68.18-50.946 132.822-58.61 192.13a1.88 1.88 0 01-1.859 1.637z" fill="#ebebed"/><path data-name="Контур 132" d="M471.445 375.163a2.177 2.177 0 01-.242-.015 1.877 1.877 0 01-1.624-2.1 609.664 609.664 0 0137.046-141.41 1.877 1.877 0 013.506 1.342 606.027 606.027 0 00-36.824 140.543 1.879 1.879 0 01-1.859 1.639z" fill="#ebebed"/><path data-name="Контур 133" d="M483.071 375.152a2.165 2.165 0 01-.242-.015 1.878 1.878 0 01-1.624-2.1c7.667-60.223 27.495-125.232 58.925-193.223a1.879 1.879 0 113.41 1.577c-31.272 67.641-50.989 132.28-58.609 192.119a1.878 1.878 0 01-1.86 1.642z" fill="#ebebed"/><path data-name="Контур 134" d="M494.683 375.153a2.1 2.1 0 01-.238-.015 1.878 1.878 0 01-1.628-2.1c7.638-60.47 27.466-125.483 58.925-193.227a1.876 1.876 0 113.4 1.58c-31.294 67.394-51.012 132.03-58.6 192.116a1.878 1.878 0 01-1.859 1.646z" fill="#ebebed"/><path data-name="Контур 135" d="M506.299 375.153a2.1 2.1 0 01-.238-.015 1.878 1.878 0 01-1.628-2.1c7.62-60.746 27.444-125.758 58.925-193.232a1.878 1.878 0 113.4 1.588c-31.316 67.119-51.033 131.753-58.6 192.11a1.877 1.877 0 01-1.859 1.649z" fill="#ebebed"/><path data-name="Контур 136" d="M517.915 375.153a1.706 1.706 0 01-.235-.015 1.876 1.876 0 01-1.632-2.094c7.591-61 27.414-126.009 58.925-193.238a1.879 1.879 0 013.4 1.6c-31.345 66.869-51.059 131.5-58.6 192.1a1.877 1.877 0 01-1.859 1.647z" fill="#ebebed"/><path data-name="Контур 137" d="M529.531 375.153a1.724 1.724 0 01-.235-.015 1.876 1.876 0 01-1.631-2.094c7.561-61.241 27.389-126.257 58.929-193.241a1.879 1.879 0 113.4 1.6c-31.371 66.626-51.085 131.256-58.6 192.1a1.878 1.878 0 01-1.863 1.65z" fill="#ebebed"/><path data-name="Контур 138" d="M541.148 375.153a1.646 1.646 0 01-.231-.015 1.874 1.874 0 01-1.636-2.092c7.539-61.506 27.367-126.524 58.929-193.245a1.88 1.88 0 013.4 1.606c-31.393 66.356-51.107 130.987-58.6 192.1a1.875 1.875 0 01-1.859 1.648z" fill="#ebebed"/><path data-name="Контур 139" d="M552.76 375.165a1.985 1.985 0 01-.231-.013 1.878 1.878 0 01-1.635-2.092 579.833 579.833 0 0131.22-127.24 1.877 1.877 0 113.528 1.28 576.279 576.279 0 00-31.023 126.415 1.874 1.874 0 01-1.859 1.65z" fill="#ebebed"/><path data-name="Контур 140" d="M564.38 375.152a1.926 1.926 0 01-.227-.013 1.877 1.877 0 01-1.639-2.09c7.477-61.989 27.3-127.01 58.932-193.254a1.877 1.877 0 013.388 1.617c-31.452 65.875-51.165 130.5-58.595 192.088a1.876 1.876 0 01-1.859 1.652z" fill="#ebebed"/><path data-name="Контур 141" d="M575.992 375.153a1.924 1.924 0 01-.227-.013 1.876 1.876 0 01-1.639-2.089c7.455-62.251 27.286-127.272 58.936-193.26a1.879 1.879 0 113.388 1.625c-31.474 65.615-51.187 130.24-58.6 192.083a1.876 1.876 0 01-1.86 1.654z" fill="#ebebed"/><path data-name="Контур 142" d="M587.609 375.152a1.839 1.839 0 01-.228-.009 1.876 1.876 0 01-1.643-2.087c7.426-62.489 27.257-127.512 58.94-193.265a1.877 1.877 0 113.381 1.632c-31.5 65.377-51.217 130-58.595 192.077a1.878 1.878 0 01-1.855 1.652z" fill="#ebebed"/><path data-name="Контур 143" d="M599.225 375.153a1.875 1.875 0 01-1.867-2.1c7.4-62.733 27.231-127.758 58.94-193.269a1.878 1.878 0 113.381 1.635c-31.529 65.135-51.243 129.757-58.595 192.074a1.872 1.872 0 01-1.859 1.658z" fill="#ebebed"/><path data-name="Контур 144" d="M610.842 375.153a1.878 1.878 0 01-1.87-2.1c7.371-62.975 27.2-128 58.947-193.274a1.876 1.876 0 013.374 1.643c-31.554 64.891-51.268 129.513-58.587 192.068a1.88 1.88 0 01-1.863 1.659z" fill="#ebebed"/><path data-name="Контур 145" d="M622.457 375.152a1.806 1.806 0 01-.22-.013 1.879 1.879 0 01-1.65-2.081c7.338-63.208 27.172-128.237 58.947-193.278a1.877 1.877 0 113.374 1.647c-31.587 64.66-51.3 129.28-58.588 192.064a1.88 1.88 0 01-1.863 1.661z" fill="#ebebed"/><path data-name="Контур 146" d="M634.072 375.153a1.813 1.813 0 01-.22-.013 1.876 1.876 0 01-1.65-2.079c7.312-63.443 27.143-128.473 58.943-193.284a1.879 1.879 0 113.374 1.654c-31.613 64.425-51.327 129.043-58.584 192.058a1.879 1.879 0 01-1.863 1.663z" fill="#ebebed"/><path data-name="Контур 147" d="M645.69 375.153a1.73 1.73 0 01-.216-.013 1.877 1.877 0 01-1.654-2.077c7.279-63.679 27.11-128.712 58.947-193.289a1.877 1.877 0 013.366 1.661c-31.643 64.189-51.353 128.805-58.58 192.053a1.879 1.879 0 01-1.863 1.665z" fill="#ebebed"/><path data-name="Контур 148" d="M657.307 375.153a1.753 1.753 0 01-.217-.013 1.875 1.875 0 01-1.654-2.076c7.246-63.906 27.077-128.94 58.947-193.292a1.878 1.878 0 013.366 1.665c-31.679 63.963-51.385 128.578-58.58 192.05a1.878 1.878 0 01-1.862 1.666z" fill="#ebebed"/><path data-name="Контур 149" d="M668.914 375.173a2.111 2.111 0 01-.213-.011 1.883 1.883 0 01-1.657-2.078 536.281 536.281 0 0116.722-84.885 1.878 1.878 0 113.616 1.016 532.613 532.613 0 00-16.6 84.291 1.878 1.878 0 01-1.868 1.667z" fill="#ebebed"/><path data-name="Контур 150" d="M776.324 163.363c-15.35 8.913-37.45 54.3-56.005 118.03-35.556 122.124-33.245 110.642-13.439 123.363 18.974 12.186 12.193 2.076 12.193 2.076l63.451-244.088z" fill="#ddd"/><path data-name="Контур 151" d="M111.002 447.366s19.039-19.889 27.589-36.438a5.465 5.465 0 015.529-2.921 1155.522 1155.522 0 00203.571 4.413c60.2-4.271 261.775-33.555 351.86-13.239a17.629 17.629 0 0111.749 25.222c-5.2 10.041-12.718 20.71-21.943 22.963z" fill="#fff"/><path data-name="Контур 152" d="M480.958 405.559a232.386 232.386 0 01-7.163 41.792H689.52c9.218-2.248 16.735-12.9 21.93-22.924a17.668 17.668 0 00-11.9-25.273c-50.541-11.355-136.029-7.161-212.016-.5a7.189 7.189 0 00-6.576 6.905z" fill="#ddd"/><path data-name="Контур 153" d="M582.916 454.882H87.235a7.51 7.51 0 010-15.02h495.681a7.51 7.51 0 110 15.02z" fill="#5e4ef9"/><path data-name="Контур 154" d="M689.553 454.833H471.184a7.51 7.51 0 110-15.02h216.382c16.483-9.863 26.667-30.619 26.707-54.7a7.4 7.4 0 01.282-2.022l63.743-226.422a7.509 7.509 0 1114.455 4.07l-63.468 225.45c-.363 29.906-14.155 55.793-36.149 67.733a7.524 7.524 0 01-3.583.911z" fill="#462be2"/><path data-name="Контур 155" d="M253.87 622.574c-8.894 0-18.238-10.505-20.765-23.344l-28.338-144.024c-2.526-12.839 2.684-23.344 11.579-23.344 8.894 0 18.239 10.505 20.765 23.344l28.338 144.024c2.526 12.839-2.685 23.344-11.579 23.344z" fill="#c0c0ce"/><path data-name="Контур 156" d="M208.956 622.574c-8.894 0-19.257-10.505-23.028-23.344l-42.3-144.024c-3.77-12.839.422-23.344 9.316-23.344s19.257 10.505 23.028 23.344l42.3 144.024c3.771 12.839-.421 23.344-9.316 23.344z" fill="#c0c0ce"/><path data-name="Контур 157" d="M254.127 222.591a316.821 316.821 0 012.166 51.563 199.966 199.966 0 01-2.745 26.292 119.894 119.894 0 01-3.239 13.486 84.044 84.044 0 01-5.38 13.27 119.1 119.1 0 01-15.118 22.8 124.6 124.6 0 01-19.363 18.778 101.165 101.165 0 01-23.482 13.937 62.843 62.843 0 01-27.636 4.983 6.7 6.7 0 01-.13-13.351l.164-.014a52.451 52.451 0 0020.611-6.635 89.36 89.36 0 0018.273-13.32 119.528 119.528 0 0026.69-36.683 64.952 64.952 0 003.544-10.059 97.539 97.539 0 002.12-10.927 227.036 227.036 0 001.87-23.484c.33-7.988.335-16.074.1-24.174-.091-8.059-.488-16.344-.867-24.192l-.015-.313a11.266 11.266 0 0122.43-1.957z" fill="#ef9d7f"/><path data-name="Контур 158" d="M250.365 196.344c7.474-1.92 12.206 22.09 15.357 34.913a283.442 283.442 0 013.937 39.865 6.63 6.63 0 01-7.136 6.926l-31.431-2.445a6.638 6.638 0 01-6.108-6.285c-.895-17.084-1.1-66.172 25.381-72.974z" fill="#3021bf"/><path data-name="Контур 159" d="M177.491 582.746c4.57 9.408 12.245 30.452 12.245 30.452l13.122-3.218s-6.19-25.5-8.665-32.928z" fill="#ffbea4"/><path data-name="Контур 160" d="M229.812 593.587c3.527 9.408 9.108 30.453 9.108 30.453l12.105-3.219s-3.942-25.5-5.7-32.928z" fill="#ffbea4"/><path data-name="Контур 161" d="M346.503 215.296a38.985 38.985 0 00-38.144-31.12c-.246 0-.495 0-.741.008l-34.5.647a11.248 11.248 0 00-4.976 1.261l-19.239 9.967a34.487 34.487 0 00-17.708 38.019 612.96 612.96 0 0114.447 138.352 11.269 11.269 0 0012.527 11.632l87.652-9.929a11.268 11.268 0 009.97-10.412 560.314 560.314 0 00-9.288-148.425z" fill="#462be2"/><path data-name="Контур 162" d="M274.376 218.458a21.383 21.383 0 1121.382-21.382 21.383 21.383 0 01-21.382 21.382zm0-41.827a20.444 20.444 0 1020.443 20.444 20.444 20.444 0 00-20.443-20.445z" fill="#fff"/><path data-name="Контур 163" d="M275.148 240.473a5.763 5.763 0 01-4.573-2.532 10.533 10.533 0 01-1.969-6.106c-.1-4.833 2.725-8.823 6.285-8.9h.1a5.761 5.761 0 014.572 2.532 10.534 10.534 0 011.969 6.106 10.511 10.511 0 01-1.72 6.177 5.736 5.736 0 01-4.565 2.719zm-.154-16.6h-.081c-3.047.062-5.456 3.623-5.368 7.939a9.607 9.607 0 001.778 5.557 4.865 4.865 0 003.825 2.16h.081a4.836 4.836 0 003.817-2.314 9.585 9.585 0 001.551-5.625 9.607 9.607 0 00-1.779-5.557 4.86 4.86 0 00-3.825-2.16z" fill="#fff"/><path data-name="Контур 164" d="M278.287 262.053c-3.52 0-6.447-3.847-6.546-8.636a10.538 10.538 0 011.72-6.179 5.739 5.739 0 014.566-2.717h.1a5.762 5.762 0 014.573 2.532 10.53 10.53 0 011.969 6.1 10.5 10.5 0 01-1.72 6.177 5.736 5.736 0 01-4.562 2.721zm-.158-16.595h-.081a4.823 4.823 0 00-3.814 2.314 9.579 9.579 0 00-1.547 5.627c.088 4.278 2.6 7.714 5.6 7.715h.081a4.835 4.835 0 003.819-2.316 9.582 9.582 0 001.551-5.625 9.611 9.611 0 00-1.78-5.557 4.863 4.863 0 00-3.825-2.158z" fill="#fff"/><path data-name="Контур 165" d="M257.056 380.467l-10.013-.011q-9.983.088-19.937.569c-13.291.666-26.6 1.773-40.017 3.65a305.053 305.053 0 00-40.544 8.214 176.251 176.251 0 00-41.2 16.807l-2.576 1.433a23.309 23.309 0 00-6.316 35.318c.645.763 1.714 2.266 2.607 3.515l2.808 4.025c1.864 2.755 3.738 5.533 5.566 8.39 3.692 5.667 7.272 11.51 10.811 17.394 7.054 11.8 13.78 23.92 20.3 36.2q9.737 18.45 18.716 37.441c6.015 12.638 11.719 25.454 17.317 38.352l23.383-7.8c-3.484-13.916-7.109-27.832-11.093-41.681s-8.239-27.659-12.799-41.416c-4.612-13.747-9.5-27.455-14.861-41.1q-2.785-7.03-5.741-14.051c2.373-.778 4.785-1.52 7.247-2.2a253.27 253.27 0 0133.584-6.765c11.574-1.625 23.43-2.617 35.332-3.214 5.954-.289 11.93-.458 17.889-.511l8.908.009h.086a8.7 8.7 0 008.807-8.257l2.178-44.037c-3.903-.174-7.001-.224-10.442-.274z" fill="#17203a"/><path data-name="Контур 166" d="M361.69 389.508l-2.234-27.831a11.263 11.263 0 00-12.5-10.293l-93.545 10.6a11.263 11.263 0 00-9.989 11.562l.387 11.816c-8.441 1.944-16.893 4.046-25.386 6.532a307.573 307.573 0 00-40.1 14.385l-2.113.9a23.6 23.6 0 00-11.035 33.483c.59 1.018 1.433 2.7 2.165 4.153l2.265 4.6 4.446 9.475c2.939 6.374 5.766 12.878 8.561 19.407 5.561 13.085 10.824 26.4 15.908 39.812s9.9 26.984 14.568 40.623 9.085 27.395 13.414 41.2l24.392-5.484c-2.136-14.525-4.382-29.06-6.9-43.574s-5.211-29.027-8.213-43.519-6.222-28.983-9.829-43.473q-2.239-8.9-4.664-17.816c3.85-1.269 7.744-2.5 11.7-3.657 11.543-3.389 23.593-6.137 35.684-8.724 12.115-2.572 24.444-4.707 36.795-6.67 3.62-.565 7.281-1.108 10.95-1.637l14.557-.77a32.546 32.546 0 0010.739-2.452c.22-.024.449-.053.669-.077l-.02-.2a32.466 32.466 0 0019.328-32.371z" fill="#252f5a"/><path data-name="Контур 167" d="M243.233 355.856c-.05 4.092-.156 11.7-.289 16.164a.924.924 0 00.987.954c9.642-.492 85.123-4.491 115.022-10.534a.9.9 0 00.739-.89 155.82 155.82 0 00-.7-16.125 5.209 5.209 0 00-5.9-4.673c-16.4 2.265-67.61 9.125-107.056 12.1a3.035 3.035 0 00-2.811 3.008z" fill="#3021bf"/><path data-name="Контур 168" d="M273.321 211.093a14.972 14.972 0 01-10.092-3.9c-20.1-18.241-22.2-46.938-22.379-50.148a15.02 15.02 0 0129.992-1.692c.348 5.378 3.282 21.159 12.578 29.6a15.02 15.02 0 01-10.1 26.142z" fill="#ffbea4"/><path data-name="Контур 169" d="M265.864 172.563s-38.613 9.044-12.758 28.129c22.136 16.34 28.87-19.216 12.758-28.129z" fill="#dd8b66"/><path data-name="Контур 170" d="M265.164 139.998c.11 2.633.357 5.836.591 8.758l.84 8.867c.321 2.9.662 5.787 1.057 8.485s.825 5.284 1.227 7.353l.39 2.011a26.764 26.764 0 01-51.081 15.148c-1.64-4.05-2.9-7.678-4.075-11.247s-2.183-6.975-3.17-10.393-1.879-6.771-2.752-10.142c-.875-3.432-1.677-6.592-2.5-10.339l-.164-.746a30.187 30.187 0 1158.958-13 32.4 32.4 0 01.679 5.245z" fill="#ffbea4"/><path data-name="Контур 171" d="M237.564 164.579a2.3 2.3 0 101.593-2.829 2.3 2.3 0 00-1.593 2.829z" fill="#252f5a"/><path data-name="Контур 172" d="M213.401 171.196a2.3 2.3 0 101.592-2.83 2.3 2.3 0 00-1.592 2.83z" fill="#252f5a"/><path data-name="Контур 173" d="M232.547 156.472l-.755-1.328c.352-.2 8.819-4.937 15.215-.73l-.843 1.276c-5.634-3.709-13.536.736-13.617.782z" fill="#252f5a"/><path data-name="Контур 174" d="M243.98 188.316l-.88-1.247a31.08 31.08 0 008.485-9.934l1.364.693a32.2 32.2 0 01-8.969 10.488z" fill="#252f5a"/><path data-name="Контур 175" d="M205.97 162.818l-1.474-.4a9.3 9.3 0 0110.279-6.443l-.169 1.518a7.583 7.583 0 00-8.636 5.323z" fill="#252f5a"/><path data-name="Контур 176" d="M232.168 184.103h-6.612l.169-.906a30.106 30.106 0 00-2.238-17.869l1.4-.612a31.739 31.739 0 012.5 17.858h4.785z" fill="#dd8b66"/><path data-name="Контур 177" d="M275.564 140.382c-.233-12.8-.52-18.529-7.242-18.736l5.213-2.983a6.253 6.253 0 00-5.4.514 7.741 7.741 0 00-.409-7.953l-2.509 8.65c-4.236-9.484-17.025-17.481-36.867-8.142a74.031 74.031 0 01-29.958 8.244 20.778 20.778 0 006.711 5 103.7 103.7 0 01-14.848.139 17.024 17.024 0 009.508 7.361c-5.825.54-10.482.474-10.482.474a19.292 19.292 0 0013.767 8c-4.422 2.2-7.6 3.5-7.6 3.5 9 8.117 32.317 1.714 45.231-10.092 7.358 14.305 20.22 30.539 25.92 30.036 9.238-.82 9.337-3.584 8.965-24.012z" fill="#252f5a"/><path data-name="Контур 178" d="M254.654 159.721c3.107-9.355 8.187-14.616 14.02-7.305 8.469 10.617-.805 27.857-6.966 21.814a26.378 26.378 0 01-7.054-14.509z" fill="#ffbea4"/><path data-name="Контур 179" d="M244.18 594.757a1289.8 1289.8 0 00-38.767-157.254 9.738 9.738 0 015.574-11.952c52.944-21.643 128-30.013 128.748-30.093l.1.932c-.752.082-75.676 8.437-128.5 30.031a8.8 8.8 0 00-5.031 10.794 1291.434 1291.434 0 0138.8 157.375z" fill="#fff" opacity=".2"/><path data-name="Контур 180" d="M249.071 610.944a34.076 34.076 0 01-11.425 7.4 2.608 2.608 0 00-1.6 1.808c-1.472 5.723-8.373 26.17-16.166 31.748-8.691 6.221 13.248 6.183 20.3-4.6a87.942 87.942 0 0117.3-21.116c4-3.144 1.918-9.857-4.458-15.522a2.789 2.789 0 00-3.958.281z" fill="#3932d6"/><path data-name="Контур 181" d="M201.351 604.721a34.07 34.07 0 01-12.8 4.62 2.608 2.608 0 00-1.964 1.4c-2.73 5.24-14.085 23.592-22.939 27.259-9.875 4.09 11.5 9.024 20.819.12a87.94 87.94 0 0121.633-16.647c4.605-2.157 4.1-9.166-.825-16.128a2.789 2.789 0 00-3.919-.624z" fill="#3021bf"/><path data-name="Контур 182" d="M229.206 626.994a4.843 4.843 0 01-2.641-.755 1.878 1.878 0 01-.884-1.837 5.307 5.307 0 013.484-3.751 7.425 7.425 0 017.778 1.683.458.458 0 01.161.338.467.467 0 01-.136.345 13.517 13.517 0 01-7.763 3.978zm2.493-5.889a6 6 0 00-2.185.418 4.375 4.375 0 00-2.9 2.97.938.938 0 00.455.953c3.15 2.01 7.554-1.569 8.856-2.743a6.732 6.732 0 00-4.228-1.6z" fill="#fff"/><path data-name="Контур 183" d="M236.635 623.154h-.026a13.5 13.5 0 01-8.078-3.04 4.236 4.236 0 01-1.063-3.234 2.414 2.414 0 012.273-2.457h.187c2.321 0 5.988 2.75 7.165 8.166a.47.47 0 01-.1.4.475.475 0 01-.359.165zm-6.692-7.8h-.139a1.5 1.5 0 00-1.4 1.591 3.263 3.263 0 00.832 2.541 11.619 11.619 0 006.788 2.666c-1.186-4.451-4.234-6.794-6.081-6.794z" fill="#fff"/><path data-name="Контур 184" d="M179.308 616.167a5.068 5.068 0 01-3.528-1.28 1.885 1.885 0 01-.561-1.962 5.291 5.291 0 014.07-3.1 7.421 7.421 0 017.382 2.981.468.468 0 01.1.359.459.459 0 01-.194.315 14.9 14.9 0 01-7.269 2.687zm1.4-5.548a6.137 6.137 0 00-1.225.125 4.371 4.371 0 00-3.355 2.431.936.936 0 00.286 1.016c2.765 2.53 7.712-.257 9.193-1.192a6.466 6.466 0 00-4.9-2.38z" fill="#fff"/><path data-name="Контур 185" d="M186.305 613.566a.479.479 0 01-.1-.011 13.473 13.473 0 01-7.44-4.375 4.21 4.21 0 01-.495-3.366 2.4 2.4 0 012.655-2.031c2.3.242 5.61 3.608 5.853 9.3a.46.46 0 01-.169.377.454.454 0 01-.304.106zm-5.676-8.859a1.526 1.526 0 00-1.452 1.342 3.283 3.283 0 00.385 2.644 11.608 11.608 0 006.229 3.78c-.418-4.708-3.139-7.565-4.972-7.756a1.76 1.76 0 00-.191-.01z" fill="#fff"/><path data-name="Контур 186" d="M357.276 255.563a255.72 255.72 0 00-16.8-50.237 11.262 11.262 0 00-20.823 8.569l.147.395c2.73 7.327 5.586 15.234 7.908 22.979 2.454 7.764 4.661 15.575 6.346 23.375a147.445 147.445 0 013.34 23 42.665 42.665 0 01-2.5 19.225c-.341.837-1.6 2.987-2.59 4.65l-3.153 5.186q-3.208 5.13-6.675 9.991a137.016 137.016 0 01-15.051 18.036 70.353 70.353 0 01-38.86 20.8 130.386 130.386 0 01-18.583-3.917 8.084 8.084 0 00-3.893-.127c-7.317 1.327-15.036 16.107-13.066 23.274 1.224 4.446 7.391 1.247 14.236.248 14.835-2.165 32.811-2.23 33.052-5.818.032-.481.013-.883.023-1.328a76.793 76.793 0 0015.988-4.313 95 95 0 0023.888-14.526 137.159 137.159 0 0019.113-19.451c2.828-3.49 5.5-7.067 8.065-10.687l3.762-5.465a63.318 63.318 0 003.877-6.271 50.359 50.359 0 004.943-15.623 77.863 77.863 0 00.882-14.713 144.065 144.065 0 00-3.576-27.252z" fill="#ffbea4"/><path data-name="Контур 187" d="M317.214 185.161c-7.67-.848-3.033 25.377-2.29 38.561s4.965 37.88 4.965 37.88l38.529-6.222a4.886 4.886 0 004.057-5.642c-2.606-15.206-13.091-61.019-45.261-64.577z" fill="#462be2"/><path data-name="Контур 188" d="M319.422 261.684c-.044-.247-4.236-24.873-4.973-37.933a479.136 479.136 0 00-.264-4.322c-.392-6.219-.884-13.958-.645-20.414l.939.033c-.238 6.41.249 14.124.645 20.323.1 1.542.187 3 .264 4.329.734 13.007 4.918 37.579 4.958 37.827z" fill="#fff"/><path data-name="Контур 189" d="M222.224 595.123l2.7 9.906 29.612-4.953-1.761-12.185z" fill="#37477c"/><path data-name="Контур 190" d="M168.992 584.896l3.072 9.793 29.4-6.072-2.222-12.105z" fill="#252f5a"/><path data-name="Прямоугольник 2" fill="#fff" d="M290.381 119.115h.939v21.892h-.939z"/><path data-name="Контур 191" d="M290.854 143.679a2.668 2.668 0 112.512-1.773 2.662 2.662 0 01-1.372 1.514 2.631 2.631 0 01-1.14.259zm0-4.4a1.731 1.731 0 101.628 2.312 1.73 1.73 0 00-1.632-2.31z" fill="#fff"/><path data-name="Контур 192" d="M271.614 141.471a103.025 103.025 0 01-30.3-6.634c-17.199-6.142-33.836-15.731-31.907-21.151l5.016-14.044.888.315-5.017 14.049c-1.338 3.753 10.935 12.666 31.338 19.952s35.548 8.172 36.886 4.413l5.016-14.045.887.315-5.016 14.045c-.695 1.94-3.582 2.783-7.791 2.785z" fill="#fff"/><path data-name="Контур 193" d="M304.924 121.028q-.159 0-.33-.017l-52.7-5.456a14.685 14.685 0 01-6.542-2.338l-44.24-29.16a2.88 2.88 0 01-1.144-3.416 2.839 2.839 0 013.047-1.921l52.7 5.453a14.687 14.687 0 016.546 2.338l44.237 29.165a2.916 2.916 0 01-1.573 5.352zM202.681 79.641a1.98 1.98 0 00-1.056 3.628l44.239 29.16a13.739 13.739 0 006.124 2.188l52.7 5.456a1.9 1.9 0 002.068-1.3 1.934 1.934 0 00-.774-2.314l-44.233-29.162a13.772 13.772 0 00-6.128-2.187l-52.7-5.453a2.163 2.163 0 00-.238-.013z" fill="#fff"/><path data-name="Контур 194" d="M293.611 114.575l-39.889-4.131a14.68 14.68 0 01-6.546-2.338l-22.864-15.071.514-.785 22.864 15.072a13.771 13.771 0 006.128 2.187l39.889 4.131z" fill="#fff"/><path data-name="Контур 195" d="M279.13 377.097h-.125a1.879 1.879 0 01-1.749-2 11.822 11.822 0 00-2.2-9.148 13.936 13.936 0 00-10.52-3 1.877 1.877 0 110-3.755 17.191 17.191 0 0113.269 4.185 15.225 15.225 0 013.2 11.966 1.878 1.878 0 01-1.875 1.752z" fill="#252f5a"/><path data-name="Контур 196" d="M282.374 360.947c.144 1.751-4.417 3.556-10.187 4.031s-10.564-.561-10.708-2.312l-.122-1.478 20.9-1.719z" fill="#f5f5f7"/><path data-name="Контур 197" d="M282.257 359.469c.144 1.752-4.417 3.556-10.187 4.031s-10.564-.561-10.708-2.312 4.417-3.556 10.187-4.031 10.564.56 10.708 2.312z" fill="#252f5a"/><path data-name="Контур 198" d="M279.882 359.664c.083 1-3.465 2.111-7.923 2.478s-8.139-.148-8.222-1.149 3.465-2.111 7.923-2.478 8.14.148 8.222 1.149z" fill="#f5f5f7"/><path data-name="Контур 199" d="M75.321 403.721a6.5 6.5 0 007.346 5.475l218.017-31.813a6.5 6.5 0 005.475-7.346z" fill="#23d87d"/><path data-name="Контур 200" d="M230.392 381.098a7.469 7.469 0 008.261 5.342l62.088-9.06a6.5 6.5 0 005.476-7.346z" fill="#16b260"/><path data-name="Контур 201" d="M227.198 383.984L81.72 405.212a13.978 13.978 0 01-14.836-9.523l-29.321-96.756a9.735 9.735 0 018.051-12.867l145.478-21.224a13.978 13.978 0 0114.836 9.524l29.322 96.757a9.735 9.735 0 01-8.052 12.862z" fill="#23d87d"/><path data-name="Контур 202" d="M223.89 384.466L78.412 405.695a13.977 13.977 0 01-14.836-9.523L34.254 299.42a9.735 9.735 0 018.052-12.867l145.478-21.233a13.978 13.978 0 0114.836 9.523l29.322 96.757a9.735 9.735 0 01-8.052 12.863z" fill="#33ff9d"/><path data-name="Контур 203" d="M76.148 402.614a9.978 9.978 0 01-9.307-6.848L37.52 299.009a7.264 7.264 0 01.721-6.093 7.122 7.122 0 015.1-3.194l145.475-21.228a9.9 9.9 0 0110.535 6.76l29.321 96.757a7.24 7.24 0 01-.719 6.091 7.109 7.109 0 01-5.1 3.194L77.376 402.525a8.366 8.366 0 01-1.228.089zm1.1-1.018l.066.464-.066-.464 145.477-21.228a6.2 6.2 0 004.441-2.769 6.339 6.339 0 00.616-5.317l-29.329-96.756a8.929 8.929 0 00-9.505-6.1L43.475 290.65a6.2 6.2 0 00-4.441 2.769 6.338 6.338 0 00-.616 5.319l29.321 96.757a8.933 8.933 0 009.505 6.102z" fill="#fff"/><path data-name="Контур 204" d="M132.635 359.981a26.824 26.824 0 01-5.1-.495 6.986 6.986 0 01-5.033-3.953 6.338 6.338 0 01.275-5.885 15.79 15.79 0 001.225-12.645 21.37 21.37 0 00-8.459-11.29 6.69 6.69 0 01-2.916-6.31 6.6 6.6 0 014.114-5.484 23.535 23.535 0 015.53-1.5 29.318 29.318 0 0131.136 20 21.375 21.375 0 01-2.116 17.923 20.919 20.919 0 01-14.98 9.371 25.6 25.6 0 01-3.678.264zm-8.233-9.391a4.5 4.5 0 00-.187 4.166 5.107 5.107 0 003.682 2.886 24.3 24.3 0 008.148.216 19.072 19.072 0 0013.667-8.519 19.524 19.524 0 001.9-16.371 27.337 27.337 0 00-29.069-18.689 21.65 21.65 0 00-5.09 1.377 4.744 4.744 0 00-2.959 3.947 4.843 4.843 0 002.108 4.562 23.245 23.245 0 019.2 12.288 17.633 17.633 0 01-1.4 14.138z" fill="#fff"/><path data-name="Контур 205" d="M53.857 237.615a28.745 28.745 0 1128.745-28.747 28.744 28.744 0 01-28.745 28.745zm0-56.55a27.806 27.806 0 1027.806 27.803 27.806 27.806 0 00-27.806-27.8z" fill="#33ff9d"/><path data-name="Контур 206" d="M31.093 102.383a15.547 15.547 0 11-15.546-15.546 15.547 15.547 0 0115.546 15.546z" fill="#fff"/><path data-name="Контур 207" d="M813.713 262.466a16.016 16.016 0 1116.017-16.015 16.017 16.017 0 01-16.017 16.015zm0-31.094a15.078 15.078 0 1015.075 15.076 15.078 15.078 0 00-15.075-15.076z" fill="#fff"/><path data-name="Контур 208" d="M359.717 862.354a9.154 9.154 0 11-9.154-9.154 9.154 9.154 0 019.154 9.154z" fill="#252f5a"/><path data-name="Контур 209" d="M651.833 79.659l-14.99 25.97h29.984z" fill="#ffa76c"/><path data-name="Контур 210" d="M146.323 227.008l-.213-.786-7.968-29.749 30.531 8.181-.572.576zm-6.854-29.208l7.338 27.392 20.055-20.05z" fill="#ffa76c"/><path data-name="Прямоугольник 3" fill="#252f5a" d="M792.195 320.433l18.054-18.054 18.054 18.054-18.054 18.054z"/><path data-name="Контур 211" d="M806.558 82.441l-.668-.665 40.625-40.625.668.661z" fill="#33ff9d"/><path data-name="Прямоугольник 4" fill="#ffa76c" d="M4.935 395.661l.664-.664 40.627 40.627-.664.664z"/><path data-name="Прямоугольник 5" fill="#252f5a" d="M544.425 857.92l.668-.668 40.626 40.627-.667.668z"/></g></svg>