<svg xmlns="http://www.w3.org/2000/svg" width="485.37" height="322.12"><defs><linearGradient id="a" y1=".5" x2="1" y2=".5" gradientUnits="objectBoundingBox"><stop offset=".11" stop-color="#fff"/><stop offset="1" stop-color="#f8f9f8"/></linearGradient></defs><g data-name="art board 1"><path data-name="Контур 510" d="M471.561 145.434c10.712-6.225 10.654-16.369-.127-22.594L348.816 52.046c-10.781-6.225-28.295-6.225-39.006 0l-3.543 2.062-6.154 3.576L25.812 217.088l-6.154 3.576-5.849 3.4c-10.712 6.225-10.654 16.369.127 22.594l122.618 70.794c10.782 6.225 28.294 6.225 39.006 0l5.849-3.4 6.154-3.576 274.3-159.406 6.154-3.576zm-72.214-53.643a3.625 3.625 0 013.3 0 1.008 1.008 0 01.011 1.909 3.641 3.641 0 01-3.3 0 1.01 1.01 0 01-.011-1.909zm-22.9-.29a2.872 2.872 0 012.61 0l24.163 13.951a.8.8 0 01.009 1.512 2.873 2.873 0 01-2.61 0l-24.165-13.95a.8.8 0 01-.008-1.512zm-16.022-9.688a6.809 6.809 0 016.174-.005 1.894 1.894 0 01.02 3.582 6.81 6.81 0 01-6.174-.005 1.886 1.886 0 01-.02-3.571z" fill="#252f5a" opacity=".2"/><path data-name="Контур 215" d="M404.446 46.709l-.2-.723-7.324-27.359L425 26.151l-.526.529zm-6.3-26.861l6.748 25.192 18.439-18.441z" fill="#23d87d"/><path data-name="Контур 212" d="M248.564 280.084A26.435 26.435 0 11275 253.649a26.435 26.435 0 01-26.436 26.435zm0-52.007a25.572 25.572 0 1025.578 25.572 25.572 25.572 0 00-25.578-25.572z" fill="#23d87d"/><path data-name="Контур 499" d="M475.531 76.46L352.912 5.666c-13.084-7.554-34.224-7.554-47.224 0l-3.545 2.06-6.153 3.574L21.689 170.708l-6.154 3.576-5.85 3.4c-6.664 3.873-9.878 8.975-9.671 14.048A122.1 122.1 0 01.022 204.3c-.323 5.2 2.945 10.455 9.817 14.422l10.435 6.025 112.184 64.769c13.085 7.554 34.226 7.554 47.226 0l5.849-3.4 6.154-3.576 179.859-104.525 94.442-54.884 6.154-3.576 2.176-1.265 1.367-.794c6.664-3.873 9.878-8.975 9.672-14.048a122.242 122.242 0 01-.008-12.567c.322-5.195-2.949-10.454-9.818-14.421z" fill="#252f5a"/><path data-name="Контур 500" d="M471.561 101.434c10.712-6.225 10.654-16.369-.127-22.594L348.816 8.046c-10.781-6.225-28.295-6.225-39.006 0l-3.543 2.062-6.154 3.576L25.812 173.088l-6.154 3.576-5.849 3.4c-10.712 6.225-10.654 16.369.127 22.594l122.618 70.794c10.782 6.225 28.294 6.225 39.006 0l5.849-3.4 6.154-3.576 274.3-159.406 6.154-3.576zm-72.214-53.643a3.625 3.625 0 013.3 0 1.008 1.008 0 01.011 1.909 3.641 3.641 0 01-3.3 0 1.01 1.01 0 01-.011-1.909zm-22.9-.29a2.872 2.872 0 012.61 0l24.163 13.951a.8.8 0 01.009 1.512 2.873 2.873 0 01-2.61 0l-24.165-13.95a.8.8 0 01-.008-1.512zm-16.022-9.688a6.809 6.809 0 016.174-.005 1.894 1.894 0 01.02 3.582 6.81 6.81 0 01-6.174-.005 1.886 1.886 0 01-.02-3.571zM106.773 234.88c-7.169 4.166-18.841 4.161-26.056-.005s-7.254-10.921-.085-15.087 18.841-4.171 26.056-.006 7.262 10.926.085 15.098zm77.87 24.17l-146-84.294L299.02 23.439l146 84.294z" fill="#fff"/><path data-name="Контур 501" d="M38.641 174.755l146 84.294 260.382-151.315-146-84.294z" fill="#cbddff"/><path data-name="Контур 502" d="M360.444 41.384a6.81 6.81 0 006.174.005 1.894 1.894 0 00-.02-3.582 6.809 6.809 0 00-6.174.005 1.886 1.886 0 00.02 3.571zm.621-3.2a5.4 5.4 0 014.9-.005 1.5 1.5 0 01.016 2.842 5.382 5.382 0 01-4.9-.005 1.5 1.5 0 01-.016-2.831z" fill="#fff"/><path data-name="Контур 503" d="M361.082 41.014a5.382 5.382 0 004.9.005 1.5 1.5 0 00-.016-2.842 5.4 5.4 0 00-4.9.005 1.5 1.5 0 00.016 2.831z" fill="#252f5a"/><path data-name="Контур 504" d="M399.358 49.7a3.641 3.641 0 003.3 0 1.008 1.008 0 00-.011-1.909 3.625 3.625 0 00-3.3 0 1.01 1.01 0 00.011 1.909zm.333-1.71a2.892 2.892 0 012.619-.005.8.8 0 010 1.517 2.872 2.872 0 01-2.61 0 .8.8 0 01-.008-1.512z" fill="#fff"/><path data-name="Контур 505" d="M399.699 49.502a2.872 2.872 0 002.61 0 .8.8 0 000-1.517 2.892 2.892 0 00-2.619.005.8.8 0 00.008 1.512z" fill="#252f5a"/><path data-name="Контур 506" d="M376.454 49.014l24.159 13.951a2.873 2.873 0 002.611 0 .8.8 0 00-.009-1.512l-24.159-13.951a2.872 2.872 0 00-2.61 0 .8.8 0 00.008 1.512z" fill="#252f5a"/><path data-name="Контур 507" d="M106.688 219.782c-7.216-4.166-18.878-4.166-26.056.006s-7.131 10.922.085 15.087 18.888 4.171 26.056.005 7.13-10.932-.085-15.098zm-1.819 14c-6.126 3.56-16.1 3.56-22.271 0s-6.2-9.34-.073-12.9 16.1-3.56 22.271 0 6.208 9.334.073 12.9z" fill="#252f5a"/><path data-name="Контур 508" d="M81.527 155.743c-6.166-3.56-16.135-3.565-22.271 0s-6.093 9.34.073 12.9 16.145 3.56 22.271 0 6.093-9.343-.073-12.9z" transform="translate(23.27 65.138)" fill="url(#a)"/><path data-name="Контур 509" d="M77.949 251.362v-1.3a1.555 1.555 0 00-.713-1.235l-12.11-6.988c-.4-.23-.716-.05-.717.409v2.6a1.571 1.571 0 00.713 1.234l6.055 3.5 6.049 3.48c.4.23.716.04.717-.409z" fill="#ffe07d"/><path data-name="Контур 213" d="M85 48.441a8.419 8.419 0 11-8.419-8.419A8.419 8.419 0 0185 48.441z" fill="#252f5a"/><path data-name="Контур 214" d="M261.211 73.888l-13.786 23.886H275z" fill="#ffa76c"/><path data-name="Прямоугольник 9" fill="#252f5a" d="M425 207.367l16.604-16.604 16.603 16.604-16.603 16.604z"/><path data-name="Прямоугольник 10" fill="#252f5a" d="M25.942 147.674l.614-.614 37.363 37.363-.614.614z"/></g></svg>